Language: Romanian
Subtitles:English/HardSub
..............................................
General
Complete name : Eu.Cand.Vreau.Sa.Fluier.Fluier.2010.DVDRip.Mkv.FEEL-FREE.mkv
Format : Matroska
File size : 852 MiB
Duration : 1h 30mn
Overall bit rate : 1 323 Kbps
................................................
Video
ID : 1
Format : MPEG-4 Visual
Format profile : Simple@L1
Format settings, BVOP : No
Format settings, QPel : No
Format settings, GMC : No warppoints
Format settings, Matrix : Default (H.263)
Codec ID : FMP4
Duration : 1h 30mn
Bit rate : 1 168 Kbps
Width : 720 pixels
Height : 576 pixels
Display aspect ratio : 3.202
Original display aspect ratio : 4:3
Frame rate : 25.000 fps
Standard : PAL
Resolution : 24 bits
Colorimetry : 4:2:0
Scan type : Progressive
Bits/(Pixel*Frame) : 0.113
Stream size : 752 MiB (88%)
Writing library : Lavc52.20.0
...............................................
Audio
ID : 2
Format : MPEG Audio
Format version : Version 1
Format profile : Layer 3
Format settings, Mode : Joint stereo / MS Stereo
Codec ID : A_MPEG/L3
Codec ID/Hint : MP3
Duration : 1h 30mn
Bit rate mode : Constant
Bit rate : 128 Kbps
Channel(s) : 2 channels
Sampling rate : 48.0 KHz
Resolution : 16 bits
Stream size : 82.4 MiB (10%)
 
http://www.imdb.com/title/tt1590024/

ScreenCaps:
 
http://www.postimg.com/image/15000/14701.jpg

Eu Cand Vreau Sa Fluier Fluier 2010 DVDRip Mkv FEEL-FREE Torrent Free Download
 
http://thepiratebay.org/user/extremezone/0/7